<svg width="500" height="94" viewBox="0 0 500 94" fill="none" xmlns="http://www.w3.org/2000/svg">
<circle cx="42.2883" cy="45.7112" r="41.7112" fill="#6274BC"/>
<path fill-rule="evenodd" clip-rule="evenodd" d="M20.0674 41.5461C20.2034 41.7493 20.3391 41.9529 20.4756 42.1562C19.6591 42.1307 18.8002 42.0513 18.6338 41.7016C18.6373 41.6842 18.6407 41.6666 18.6451 41.6494C19.1036 41.5291 19.497 41.5217 20.0674 41.5461ZM24.4238 43.3988C24.4888 43.5998 24.5558 43.8001 24.6208 44.0004C24.4661 44.007 24.3127 44.0139 24.1592 44.0201C24.196 43.8154 24.2335 43.6104 24.2691 43.4057C24.3212 43.4031 24.3716 43.4013 24.4238 43.3988ZM26.001 47.7927C25.5918 48.1701 25.2739 48.422 25.0309 48.9906C24.6917 48.7147 24.5176 48.165 24.4086 47.5502C24.2905 46.8824 24.2493 46.1377 24.1592 45.5813C24.169 45.4867 24.1785 45.3922 24.1879 45.2972C24.3465 45.2855 24.5051 45.2737 24.663 45.2627C25.0653 46.0251 25.4692 46.787 25.873 47.5502C25.9158 47.6306 25.9578 47.7114 26.001 47.7927ZM25.387 42.1562C25.4386 41.8129 25.4908 41.4705 25.5448 41.128C25.5559 41.0594 25.5657 40.9903 25.5749 40.9221C25.6271 40.9195 25.6786 40.917 25.7296 40.9135C25.6142 41.328 25.5 41.7417 25.387 42.1562ZM25.0576 36.5644C25.7811 36.7604 26.5046 36.9569 27.2288 37.1534C27.2254 37.186 27.2226 37.2186 27.2199 37.2508C26.2088 37.9932 25.2745 38.323 24.7731 39.6709C24.8361 38.67 24.9002 37.6691 24.9628 36.6682C24.9942 36.6332 25.0255 36.599 25.0576 36.5644ZM27.0855 33.4578C26.9432 34.8537 27.1421 35.4724 27.3859 36.3382C27.7731 36.6145 27.9255 36.7789 27.7994 37.1857C27.1474 36.8638 26.4588 36.5262 25.4615 36.5784C25.4363 36.5508 25.4113 36.5232 25.387 36.496C25.6685 35.394 26.2127 34.718 26.6351 33.8451C26.7855 33.7157 26.9352 33.5866 27.0855 33.4578ZM30.2042 31.6005C30.2358 31.5987 30.2677 31.5961 30.2985 31.5939C29.9996 32.6234 29.879 34.9998 29.3548 35.9431C28.1186 35.3578 28.1422 32.8239 29.5272 31.823C29.7532 31.7484 29.9785 31.6743 30.2042 31.6005ZM29.0511 39.2307C29.3986 39.6073 29.7454 39.984 30.0933 40.361C29.6848 41.6186 28.9088 42.5658 28.5823 44.0201C28.3761 44.0049 28.1716 43.9893 27.9654 43.9745C27.4405 42.5074 28.7564 40.1187 28.9798 39.0496C29.3012 39.087 29.6224 39.1236 29.9445 39.1614C30.0626 39.4625 30.1807 39.7635 30.2985 40.065C29.8832 39.7869 29.4668 39.5084 29.0511 39.2307ZM31.902 31.5939C31.7973 32.8136 32.0661 33.4451 32.1403 34.3923C31.5267 34.702 30.9117 35.0124 30.2985 35.3218C30.4528 33.7659 30.7676 32.7408 31.1974 31.6461C31.4325 31.6285 31.6676 31.6112 31.902 31.5939ZM32.6178 29.7387C32.6635 29.7353 32.7097 29.7329 32.7542 29.73C32.6868 29.9285 32.6178 30.127 32.5467 30.325C32.4125 30.3338 32.2756 30.3425 32.1403 30.3513C32.2435 30.2287 32.3489 30.1051 32.4548 29.982C32.5097 29.9008 32.5635 29.82 32.6178 29.7387ZM32.7542 35.432C32.1411 35.8091 31.5266 36.1872 30.9124 36.5644C30.9497 35.8781 31.824 34.9571 32.5542 34.7004C32.6104 34.7309 32.6646 34.7614 32.7215 34.7918C32.7321 35.0051 32.743 35.2187 32.7542 35.432ZM33.9821 31.1501C33.871 31.7801 33.76 32.4102 33.6503 33.0403C33.5351 33.1126 33.4195 33.1842 33.3055 33.2562C33.2449 33.324 33.1847 33.3909 33.1234 33.4578C32.7894 32.9893 32.7069 31.8424 32.7776 30.9726C33.1797 31.0321 33.5809 31.0913 33.9821 31.1501ZM35.2099 29.7317C35.2073 29.7525 35.205 29.7727 35.2024 29.793C35.0448 29.9428 34.8882 30.0929 34.7317 30.243C34.4192 30.3629 34.3801 30.3579 33.9821 30.3447C34.036 30.1397 34.0929 29.9347 34.1492 29.73C34.5024 29.7305 34.8567 29.731 35.2099 29.7317ZM36.4378 27.2447C36.2551 27.6585 36.0725 28.0727 35.8898 28.4874C35.2537 28.4415 34.6179 28.3957 33.9821 28.3494C33.9856 28.3161 33.988 28.2828 33.9915 28.249C34.7759 27.8869 35.463 27.4585 36.4378 27.2447ZM35.446 30.4697C35.5136 30.4301 35.581 30.3909 35.6486 30.3513C35.7068 30.5587 35.7656 30.7654 35.8239 30.9726C35.6192 30.9327 35.4141 30.8929 35.2099 30.8528C35.2882 30.7251 35.3667 30.5972 35.446 30.4697ZM37.0517 32.3083C36.3204 32.5921 35.3095 32.514 34.7249 32.8365C34.6824 32.5874 34.6398 32.339 34.596 32.0898C34.7249 31.9247 34.8512 31.7591 34.9784 31.5939C35.5977 31.836 36.2167 32.0796 36.8347 32.3221C36.9072 32.3177 36.9792 32.313 37.0517 32.3083ZM35.4816 33.4262C35.2035 33.4366 34.9245 33.4472 34.6477 33.4578C34.6289 33.3701 34.6139 33.2824 34.596 33.1947C35.1826 32.9564 36.1678 32.9333 37.0517 32.8365C36.7407 33.0073 36.4309 33.1781 36.1195 33.3491C35.9068 33.3745 35.695 33.4002 35.4816 33.4262ZM37.6656 33.426C36.9624 33.6004 36.2887 34.2186 35.8291 34.7004C35.7391 34.1393 36.8221 33.146 37.341 32.8365C37.5714 33.041 37.5955 33.0196 37.6656 33.426ZM38.8935 26.0021C38.8907 26.0355 38.8876 26.0676 38.8844 26.1005C38.6384 26.2481 38.392 26.3961 38.1465 26.5437C37.7817 26.5702 37.4165 26.597 37.0517 26.6234C37.0561 26.5913 37.0593 26.558 37.0624 26.5258C37.6736 26.351 38.2843 26.1766 38.8935 26.0021ZM37.9003 27.8661C37.8222 27.75 37.7445 27.6339 37.6656 27.5178C38.2187 27.0517 39.4426 27.3086 40.1214 27.3772C39.3808 27.5402 38.6413 27.7034 37.9003 27.8661ZM43.3942 26.0362C44.421 26.1199 45.3585 26.3626 46.0707 26.8064C46.1338 26.8022 46.1972 26.799 46.2607 26.7952C46.2231 26.8487 46.1843 26.9016 46.1467 26.9552C45.8191 27.0517 45.4919 27.1482 45.1651 27.2447C44.5757 27.1604 43.9844 27.0758 43.3942 26.9911C42.0991 26.8058 40.8025 26.6201 39.5074 26.4348C39.5101 26.4088 39.5143 26.3835 39.5173 26.3578C40.774 26.067 42.1489 25.9342 43.3942 26.0362ZM47.4788 25.7085C47.4056 25.8064 47.3335 25.9046 47.261 26.0021C46.5992 25.9549 46.0522 25.6957 45.6468 25.3808C46.2609 25.4586 46.874 25.5371 47.4885 25.6153C47.4855 25.6466 47.4818 25.6775 47.4788 25.7085ZM50.7486 28.0053C50.9173 27.9406 51.0883 27.8759 51.2581 27.8116C51.4342 27.9631 51.6092 28.1156 51.7861 28.2672C51.7148 28.7834 51.2139 29.208 50.8308 29.7119C50.7325 29.7177 50.6351 29.7238 50.5365 29.73C49.735 28.4078 48.7249 26.9583 46.9521 26.4492C46.9263 26.3964 46.9008 26.3437 46.8746 26.2909C47.1141 26.1948 47.3521 26.0981 47.5912 26.0021C48.7946 26.4213 49.798 27.0577 50.9165 27.4251C51.0597 27.7724 51.0151 27.6553 50.7486 28.0053ZM52.2305 30.9502C52.1839 30.9049 52.1378 30.8583 52.0912 30.8123C51.9887 30.8185 51.888 30.8272 51.7861 30.8347C51.9543 30.6737 52.1237 30.5122 52.2944 30.3513C52.2711 30.5507 52.252 30.7514 52.2305 30.9502ZM52.7716 37.807C53.6025 38.5248 53.8148 39.563 53.4688 40.9135C53.1122 40.1131 52.7577 39.3127 52.4 38.5123C52.5182 38.3347 52.6337 38.1566 52.7503 37.9783C52.7577 37.9213 52.7635 37.8636 52.7716 37.807ZM53.0139 32.2223C53.01 32.2608 53.008 32.2993 53.0037 32.3377C52.8589 32.5037 52.7133 32.6701 52.5673 32.8365C52.5113 32.7264 52.4564 32.6157 52.4 32.5056C52.6612 32.0371 52.4734 32.2887 52.8163 32.2391C52.8817 32.2334 52.9476 32.2271 53.0139 32.2223ZM53.5243 32.2152C54.1724 32.4548 54.8231 32.6947 55.4697 32.9342C55.4656 32.999 55.4582 33.0641 55.4523 33.1289C55.2884 33.2389 55.1249 33.3486 54.9611 33.4578C54.3115 33.2183 53.6635 32.9783 53.0139 32.7392C53.0202 32.6741 53.0261 32.6089 53.032 32.5442C53.1959 32.4341 53.3597 32.3245 53.5243 32.2152ZM57.3114 34.7004C56.9522 34.4613 56.593 34.2233 56.2335 33.9854C56.1829 33.889 56.1338 33.7921 56.0836 33.6961C56.5513 33.4098 56.4838 33.4241 56.9788 33.5193C57.0884 33.913 57.1997 34.3063 57.3114 34.7004ZM57.9254 34.4643C57.8539 34.543 57.7819 34.6214 57.7096 34.7004C57.4465 34.5664 57.4005 34.3947 57.3114 34.0791C57.4992 34.16 57.6861 34.2415 57.8741 34.3229C57.8916 34.37 57.9086 34.4172 57.9254 34.4643ZM57.4668 32.6874C57.4127 32.6911 57.3636 32.6942 57.3114 32.6986C57.4797 32.5377 57.6503 32.3768 57.8222 32.2152C57.7031 32.373 57.5822 32.5296 57.4668 32.6874ZM60.3811 35.8126C60.2806 35.8562 60.1804 35.8999 60.0818 35.9431C59.532 35.6358 58.9845 35.329 58.4381 35.0213C58.2672 34.7899 58.0959 34.5576 57.9254 34.3253C58.7768 33.6967 58.8066 34.424 59.6097 34.8208C59.8657 35.1518 60.1236 35.4829 60.3811 35.8126ZM60.995 36.3593C60.7906 36.2854 60.5862 36.2115 60.3811 36.1375C60.5042 36.0735 60.6281 36.0083 60.7513 35.9431C60.8325 36.0822 60.9138 36.2208 60.995 36.3593ZM60.2482 37.3611C60.47 37.8084 60.4681 37.6811 60.995 37.6157C60.6813 37.8866 60.3665 38.1574 60.0513 38.4283C59.7523 37.8572 59.453 37.2856 59.1532 36.7153C59.1563 36.6793 59.1602 36.6442 59.1645 36.6082C59.8268 36.4664 60.0408 36.7057 60.6872 36.8009C60.7705 36.934 60.8547 37.0674 60.938 37.2009C60.7093 37.2549 60.4789 37.308 60.2482 37.3611ZM60.3811 38.4758C60.7903 38.2522 61.1991 38.0302 61.609 37.807C61.3627 38.3592 61.0436 38.6446 60.6636 39.0496C60.5702 38.8582 60.4758 38.6668 60.3811 38.4758ZM62.8368 40.847C62.5045 41.1341 62.2885 41.2269 61.6581 41.2781C61.8265 41.2963 61.9962 41.3155 62.1643 41.3341C62.1605 41.3645 62.1577 41.3938 62.1544 41.4239C61.5784 41.6676 61.002 41.9117 60.4249 42.1562C60.4092 41.4172 60.396 40.6786 60.3811 39.94C60.7779 39.4707 61.1771 39.0014 61.5739 38.5314C61.6478 38.4973 61.7188 38.4632 61.7914 38.4283C62.1395 39.2348 62.4896 40.0416 62.8368 40.847ZM62.2229 37.4493C65.6127 36.5042 64.9577 38.301 63.4451 39.6709C63.0371 38.9306 62.6287 38.1892 62.2229 37.4493ZM65.2925 37.807C64.0435 43.6677 63.8025 43.9872 59.3859 46.5053C59.3093 46.3888 59.2309 46.2727 59.1532 46.1563C59.206 45.9383 59.2573 45.7206 59.3093 45.5026C62.19 44.6815 63.8285 43.1765 63.6576 39.7641C64.1393 39.1469 64.6202 38.53 65.1011 37.9127C65.1654 37.8775 65.229 37.8426 65.2925 37.807ZM65.443 37.807C65.3938 37.6048 65.3435 37.402 65.2925 37.1995C65.4466 37.1946 65.6001 37.19 65.7524 37.1857C65.6492 37.393 65.5461 37.6001 65.443 37.807ZM57.9254 43.506C57.939 43.2903 57.9539 43.0743 57.9688 42.8587C57.9808 42.6737 57.9925 42.4884 58.0055 42.3035C58.1473 42.2567 58.29 42.2095 58.4321 42.1631C58.4525 42.1611 58.4724 42.1585 58.4923 42.1562C58.612 42.889 58.4932 43.4327 58.2478 44.0201C58.0422 43.8889 58.0019 43.8328 57.9254 43.506ZM55.4697 48.9422C55.4735 48.9064 55.4762 48.8707 55.4792 48.8349C55.7483 48.1933 56.0167 47.5522 56.2847 46.9111C56.3398 46.7755 56.3976 46.64 56.4546 46.5053C56.9259 46.5371 57.4005 46.5688 57.8722 46.6006C57.8932 46.7075 57.9078 46.8104 57.9158 46.9111C57.9782 47.6417 57.7248 48.2269 57.4629 48.9906C56.7988 48.974 56.135 48.9588 55.4697 48.9422ZM56.0836 51.4367C56.0887 51.1162 56.095 50.7954 56.101 50.4753C56.1091 50.3944 56.1169 50.3135 56.1244 50.2332C56.4704 50.2586 56.8151 50.2847 57.1602 50.3104L57.3114 50.2987C57.0741 50.6908 56.8376 51.0831 56.6021 51.4758C56.4284 51.4627 56.2564 51.4497 56.0836 51.4367ZM55.4757 47.416C55.4963 47.4053 55.5173 47.3946 55.5384 47.3836C55.7023 47.2998 55.866 47.2157 56.0297 47.132C56.0475 47.1301 56.0653 47.1285 56.0836 47.1266C56.058 47.2123 56.0342 47.2976 56.0097 47.3839C55.915 47.7124 55.8204 48.0411 55.7255 48.3692C55.6413 48.0773 55.5545 47.7848 55.4697 47.4922C55.4714 47.4664 55.4729 47.4412 55.4757 47.416ZM54.5181 50.5097C54.426 50.4171 54.332 50.3245 54.2418 50.2332C54.5119 50.4208 54.3357 50.2375 54.5181 50.5097ZM53.0139 49.7706C53.3585 49.5527 53.7319 49.6199 54.2418 49.6275C54.1907 49.7927 54.1414 49.9585 54.091 50.1238C53.6711 50.291 53.6117 50.2293 53.1341 50.1805C53.0945 50.0441 53.0553 49.9073 53.0139 49.7706ZM53.7656 52.0971C53.9249 52.4702 54.0838 52.8438 54.2418 53.217C53.8744 53.4651 53.5066 53.7129 53.1385 53.961C52.8102 53.513 53.1693 52.2522 53.7656 52.0971ZM52.5541 48.1978C52.5037 48.2015 52.4528 48.2046 52.4 48.209C52.4681 48.0549 52.5344 47.9014 52.6014 47.7479C52.5872 47.8971 52.5701 48.0474 52.5541 48.1978ZM54.3217 48.3692C54.2961 48.3521 54.2684 48.3352 54.2418 48.3179C54.3327 48.1294 54.4207 47.9404 54.5116 47.7516C54.5401 47.7503 54.5713 47.7491 54.6008 47.7479C54.6849 47.9466 54.7712 48.1456 54.8557 48.3445C54.6778 48.3528 54.4999 48.3612 54.3217 48.3692ZM58.5727 40.2922C58.5625 40.2224 58.5509 40.1519 58.5393 40.0819C58.7011 39.8855 58.8043 39.7632 59.0819 39.6709C59.106 39.793 59.1303 39.9158 59.1532 40.0385C59.0345 40.1174 58.9148 40.1966 58.7962 40.2764C58.7214 40.2818 58.6472 40.2871 58.5727 40.2922ZM58.5393 41.8095C58.4286 41.9557 58.2317 42.0382 58.0914 42.1562C58.0356 41.1208 57.9797 40.0854 57.9254 39.0496C58.1299 39.9703 58.3343 40.8901 58.5393 41.8095ZM57.4129 45.9735C57.8193 45.7483 57.8763 45.9564 57.9254 46.5053C57.5148 46.5045 57.1073 46.5029 56.6975 46.5021C56.7044 46.4378 56.7112 46.3742 56.7173 46.3107C56.9492 46.1979 57.1807 46.0859 57.4129 45.9735ZM56.8108 44.2561C56.9024 44.1777 56.9946 44.0985 57.0883 44.0201C57.1622 44.1539 57.2375 44.2878 57.3114 44.4212C57.2765 44.4948 57.243 44.5679 57.2071 44.6414C57.0375 44.622 56.8678 44.6022 56.6975 44.5824C56.7359 44.4736 56.7732 44.3649 56.8108 44.2561ZM56.6975 45.9039C56.4848 46.1041 56.2711 46.3051 56.0574 46.5053C55.9185 46.4823 55.7793 46.4597 55.6405 46.4362C55.5823 46.4421 55.5258 46.4475 55.4697 46.4529C55.57 46.2627 55.6684 46.0733 55.7688 45.884C56.0781 45.8908 56.3882 45.8976 56.6975 45.9039ZM54.3804 45.551C54.125 45.3727 54.3104 45.3969 54.2613 45.2627C54.3006 45.3584 54.3411 45.4547 54.3804 45.551ZM56.3169 42.7775C55.6257 42.4198 54.9341 42.0618 54.2418 41.7038C54.3383 40.2833 54.5128 38.6508 54.3717 37.1857C55.972 37.7658 57.4055 40.3615 56.3169 42.7775ZM54.8557 42.7775C55.3665 43.0451 55.3368 43.2927 56.0449 43.5084C56.1688 43.9689 55.9805 44.1504 55.6863 44.6414C55.4363 44.6314 55.1853 44.621 54.9343 44.6106C54.7788 43.7929 54.9471 43.3226 54.8557 42.7775ZM54.9962 46.7936C54.739 46.6159 54.9232 46.6395 54.8759 46.5053C54.9152 46.6022 54.9545 46.6985 54.9962 46.7936ZM59.1532 40.8135C59.1551 40.7755 59.1572 40.7374 59.1593 40.6998C59.344 40.5635 59.5281 40.4285 59.7128 40.2922C59.8103 40.9282 59.7734 41.9873 59.6283 42.7775C59.3015 42.5208 59.2412 41.4415 59.1532 40.8135ZM59.1532 42.7768C59.2785 42.5699 59.4019 42.3631 59.524 42.1562C59.451 42.3587 59.3779 42.5619 59.3086 42.7657C59.2564 42.77 59.2054 42.7744 59.1532 42.7768ZM62.733 40.9195C62.769 40.9173 62.8029 40.9154 62.8364 40.9135C62.8658 43.2933 61.3947 43.7264 59.4604 44.622C59.3579 44.6287 59.2558 44.6354 59.1532 44.6414C59.5544 43.8105 59.9556 42.9793 60.3579 42.1484C61.1496 41.7388 61.9422 41.3299 62.733 40.9195ZM59.0947 36.2696C59.1146 36.3309 59.1342 36.3925 59.1532 36.4542C59.1023 36.4912 59.0503 36.5278 58.9997 36.5644C58.8455 36.3571 58.6926 36.1503 58.5393 35.9431C58.7253 36.0521 58.9105 36.161 59.0947 36.2696ZM58.5393 37.3031C58.5475 37.267 58.5502 37.2299 58.5562 37.1947C58.6009 37.1916 58.6462 37.1884 58.6914 37.1857C58.8463 37.3934 58.9995 37.6002 59.1532 37.807C58.7983 37.6368 58.7394 37.5957 58.5393 37.3031ZM59.1532 38.891C58.877 39.1508 58.6001 39.4111 58.3243 39.6709C57.731 38.8126 57.1392 37.9532 56.5467 37.0949C55.78 36.4295 55.0096 35.7632 54.2418 35.0974C54.4125 34.9652 54.5814 34.8326 54.7499 34.7004C55.8652 35.1825 57.8173 36.1007 58.2102 37.2463C58.3382 37.6188 57.898 37.9268 58.1978 38.2387C58.5536 38.6078 58.9101 38.3445 59.1532 38.891ZM53.9717 42.7775C54.033 42.8021 54.0967 42.8268 54.1588 42.8511C54.1864 43.448 54.2137 44.0449 54.2418 44.6414C54.1457 44.6192 54.0512 44.5971 53.9543 44.5749C53.6847 44.3762 53.4957 43.4508 53.7428 43.0491C53.8183 42.9587 53.8954 42.8682 53.9717 42.7775ZM52.6119 45.8918C52.6774 45.8893 52.7448 45.8865 52.8099 45.884C52.8774 46.0459 52.9468 46.2079 53.0139 46.37C52.9098 46.4109 52.8036 46.452 52.6979 46.4929C52.5989 46.4971 52.501 46.5012 52.4 46.5053C52.4714 46.3009 52.5424 46.0965 52.6119 45.8918ZM52.0505 55.825C51.9628 55.5235 51.8737 55.2207 51.7861 54.9182C52.1643 54.8086 52.5418 54.699 52.9207 54.5887C52.9509 54.5873 52.9834 54.5848 53.0139 54.5823C53.0099 54.6104 53.0066 54.6393 53.0043 54.6674C52.6865 55.0538 52.3687 55.4389 52.0505 55.825ZM51.1721 53.3397C51.2838 52.9759 51.3659 52.9202 51.5685 52.7184C51.6252 52.7402 51.6827 52.762 51.7392 52.7835C51.7547 52.8371 51.7703 52.8908 51.7861 52.9444C51.6601 53.068 51.5341 53.1912 51.4086 53.3155C51.329 53.3231 51.2505 53.3318 51.1721 53.3397ZM51.4609 53.961C51.365 53.8554 51.2684 53.7495 51.1721 53.6442C51.3762 53.5425 51.5823 53.4411 51.7861 53.3397C51.7335 53.5437 51.6799 53.7473 51.6263 53.9507C51.5714 53.9543 51.5161 53.9577 51.4609 53.961ZM50.814 56.7808C50.7283 56.7106 50.6431 56.6407 50.5582 56.5701C50.6206 56.5664 50.6853 56.5623 50.7477 56.5585C51.064 56.3139 51.3792 56.0693 51.6943 55.825C51.7244 56.0743 51.756 56.3236 51.7861 56.5723C51.5455 56.737 51.3023 56.9029 51.0602 57.0676C50.9784 56.9719 50.8969 56.8765 50.814 56.7808ZM50.8606 63.8949C49.383 63.9581 48.5008 63.582 47.2913 63.4759C46.8311 62.5674 46.3714 61.6569 45.9116 60.7484C45.8232 60.6571 45.7348 60.5661 45.6468 60.4751C47.9664 60.2002 49.4247 59.0824 51.1431 58.3102C51.7518 58.8862 53.1295 61.8299 51.9161 63.1328C51.6276 63.5787 51.3011 63.6228 50.8606 63.8949ZM44.514 60.8313C44.6983 60.82 44.884 60.8075 45.0701 60.7954C45.9062 61.3548 46.4757 62.3584 46.8746 63.2807C46.0563 63.0455 45.2367 62.8083 44.4189 62.5719C44.601 61.9509 44.6779 61.3198 44.514 60.8313ZM42.7501 58.4858C43.672 58.2194 44.5927 57.9548 45.5146 57.6889C46.9647 57.8308 48.4143 57.9728 49.8652 58.1138C49.8913 58.1873 49.9182 58.2599 49.9443 58.3326C48.6483 58.9145 47.175 59.4049 45.6892 60.1566C44.0798 60.2844 43.6924 59.6846 42.5771 59.2898C42.6357 59.0211 42.6935 58.7542 42.7501 58.4858ZM42.5771 61.413C42.5958 61.234 42.6137 61.0542 42.6324 60.8743C42.9848 60.8483 43.3372 60.8215 43.691 60.7954C43.7777 61.2641 43.8708 61.5258 43.74 62.038C43.3524 61.8299 42.9651 61.6211 42.5771 61.413ZM41.3492 62.3865C41.4861 62.3099 41.6238 62.2348 41.7603 62.1586C42.2649 61.8252 42.645 62.2707 43.191 62.4454C43.1183 62.5159 43.0459 62.5876 42.9736 62.6594C42.4319 62.5687 41.8906 62.4772 41.3492 62.3865ZM42.5413 61.4167C42.408 61.3568 42.2747 61.2963 42.1419 61.2349C42.0822 61.0894 42.0224 60.9414 41.9632 60.7954C42.1675 60.8085 42.3722 60.8211 42.5771 60.8336C42.5653 61.0285 42.5529 61.2224 42.5413 61.4167ZM40.7353 61.4167C40.9403 61.5927 41.1444 61.7674 41.3492 61.9421C41.3478 62.2675 41.32 62.2306 41.2466 62.6594C41.0762 62.2449 40.9064 61.8312 40.7353 61.4167ZM39.143 59.0872C39.7191 58.9127 40.4878 58.9511 41.3492 58.9315C41.0815 59.1388 40.8157 59.3457 40.5475 59.5528C39.9961 59.4987 39.4446 59.4451 38.8935 59.3908C38.9768 59.2896 39.0601 59.1883 39.143 59.0872ZM37.6656 27.951C38.8052 26.8632 41.6658 27.1883 42.3829 27.879C42.4475 27.8738 42.5129 27.8676 42.5771 27.862C41.6229 28.7491 40.1463 28.8518 39.2393 29.73C38.5285 29.257 37.9404 28.954 37.6656 27.951ZM43.9365 29.73C44.0975 29.9124 44.2578 30.0948 44.4189 30.2769C43.9888 30.3021 43.5366 30.3277 43.0865 30.3655C42.0704 30.4517 41.067 30.6033 40.3657 30.9664C40.3359 30.9688 40.3053 30.9705 40.2752 30.9726C40.2235 30.893 40.1723 30.8137 40.1214 30.7348C40.9812 30.2983 41.9191 29.9473 43.0865 29.7999C43.329 29.7694 43.5816 29.7476 43.8459 29.7362C43.8768 29.7338 43.9067 29.7314 43.9365 29.73ZM46.3281 26.6234C47.1214 27.4195 48.3077 27.8895 48.7164 29.1087C47.0495 28.3355 44.4896 28.3468 43.191 27.1173C44.3368 27.3609 45.3095 27.2705 46.3281 26.6234ZM46.8746 30.9726C47.6349 31.0768 48.3941 31.1809 49.1519 31.2842C49.2126 31.28 49.2718 31.2745 49.3303 31.2695C48.7224 31.792 48.1137 32.314 47.5043 32.8365C47.2178 32.2609 47.1483 31.4807 46.8746 30.9726ZM49.8005 33.6299C49.6437 33.6063 49.4872 33.5821 49.3303 33.5585C49.5348 33.5249 49.7395 33.4914 49.9443 33.4578C49.8964 33.5156 49.8479 33.5734 49.8005 33.6299ZM49.3303 32.1452C49.5171 31.9618 49.7059 31.7784 49.8927 31.5939C49.9106 31.8008 49.9264 32.0078 49.9443 32.2152C49.8091 32.1854 49.6735 32.1562 49.5371 32.1259C49.4688 32.1332 49.3986 32.1384 49.3303 32.1452ZM50.4444 52.7076C50.3545 52.7114 50.264 52.7149 50.1751 52.7184C50.0965 52.6462 50.0207 52.5738 49.9443 52.5016C50.0033 52.4228 50.0619 52.3449 50.122 52.2668C50.2667 52.2101 50.4119 52.1538 50.5582 52.0971C50.5192 52.3003 50.4823 52.5038 50.4444 52.7076ZM49.9553 53.8407C50.0296 53.7539 50.1059 53.6677 50.181 53.5809C50.1876 53.5002 50.1941 53.4195 50.2006 53.3397C50.3202 53.5293 50.439 53.7183 50.5582 53.9074C50.3529 53.9254 50.1484 53.9435 49.9443 53.961C49.9479 53.9214 49.9512 53.8808 49.9553 53.8407ZM49.7117 55.825C49.5848 55.6728 49.4583 55.5207 49.3303 55.3689C49.7392 55.3138 50.149 55.2587 50.5582 55.2036C50.3632 55.4048 50.1681 55.6056 49.9731 55.8068C49.8866 55.8129 49.799 55.8182 49.7117 55.825ZM49.9443 57.6889C49.5358 57.6401 49.1269 57.5903 48.7164 57.5415C49.0042 57.3837 49.2937 57.2259 49.582 57.0676C49.7026 57.2741 49.8245 57.4812 49.9443 57.6889ZM49.0831 55.9358C49.1658 56.0144 49.2477 56.0927 49.3303 56.1713C49.034 56.2475 48.7388 56.324 48.4413 56.3997C48.1236 56.415 47.8062 56.4305 47.4885 56.4463C47.93 56.2392 48.3734 56.0317 48.8161 55.825C48.906 55.8622 48.9947 55.8991 49.0831 55.9358ZM45.6468 29.1087C46.364 29.1281 47.1221 29.3097 47.4885 29.73C46.9936 29.681 46.1049 29.7607 45.8801 29.3801C45.8041 29.2895 45.7249 29.1989 45.6468 29.1087ZM46.2704 31.5939C46.6209 31.8999 46.7437 32.2603 46.6799 32.8365C46.139 32.6503 46.2802 32.0594 46.2704 31.5939ZM46.8746 35.5104C46.8814 35.4751 46.8867 35.4399 46.8938 35.4046C48.1167 35.1394 48.3817 35.563 47.824 35.9431C47.3427 35.8775 47.1226 35.6961 46.8746 35.5104ZM48.4472 51.4758C48.5361 51.4979 48.6261 51.5204 48.7164 51.5428C48.7127 51.5717 48.7097 51.5998 48.7068 51.6284C48.5046 51.7845 48.3043 51.941 48.1025 52.0971C48.1865 51.8914 48.2706 51.6868 48.3539 51.4826C48.3865 51.4797 48.4168 51.4779 48.4472 51.4758ZM48.109 36.3216C48.2612 36.1957 48.4143 36.0694 48.5665 35.9431C48.6163 36.1506 48.6666 36.3573 48.7164 36.5644C48.5114 36.5197 48.3072 36.4747 48.1025 36.4296C48.1042 36.3934 48.107 36.3573 48.109 36.3216ZM49.9443 52.9356C49.4498 53.0641 48.9556 53.1929 48.4611 53.3216C48.3417 53.3276 48.2219 53.3335 48.1025 53.3397C48.1053 53.3188 48.1089 53.2981 48.1122 53.2774C48.6691 53.1688 49.0248 52.9847 49.3533 52.7184C49.5261 52.7507 49.7001 52.7833 49.8729 52.8159C49.8966 52.8554 49.921 52.8955 49.9443 52.9356ZM48.8854 51.4758C48.8291 51.3607 48.7723 51.2462 48.7164 51.1316C48.8568 51.0396 48.998 50.9465 49.1392 50.8545C49.2032 50.8895 49.2664 50.923 49.3303 50.957C49.2499 51.1241 49.1686 51.2907 49.0877 51.4578C49.0206 51.4638 48.9526 51.4698 48.8854 51.4758ZM45.0328 55.7722C45.2761 55.5835 45.5205 55.3938 45.7634 55.2036C46.518 55.2683 47.2712 55.333 48.0262 55.3977C48.0519 55.4534 48.0768 55.5098 48.1025 55.5651C47.5937 55.8589 47.0839 56.1528 46.5747 56.4463C46.0082 56.3537 45.5178 56.1018 45.2244 55.7588C45.1608 55.7639 45.0968 55.7678 45.0328 55.7722ZM43.896 55.825C44.2748 56.0322 44.6545 56.239 45.0328 56.4463C44.4189 56.3387 43.805 56.2301 43.191 56.1229C43.4266 56.0239 43.6608 55.9246 43.896 55.825ZM43.805 57.0935C43.8022 57.1444 43.7995 57.1935 43.7971 57.2438C43.6798 57.3085 43.5638 57.3731 43.4475 57.4383C43.3611 57.4482 43.2767 57.4607 43.191 57.4706C43.1938 57.4209 43.1978 57.3712 43.2006 57.3215C43.4682 56.9661 43.4227 57.0848 43.805 57.0935ZM40.9102 31.8073C40.8525 31.745 40.7941 31.6832 40.7353 31.6218C41.3444 31.2891 42.3068 31.1323 43.2531 31.0556C44.0325 30.9925 44.8001 30.983 45.3488 30.9726C45.4481 31.5936 45.5478 32.2151 45.6468 32.8365C44.846 32.7486 44.0784 32.6444 43.2531 32.6063C42.5922 32.5764 41.8943 32.588 41.1123 32.6847C41.0465 32.3918 40.9787 32.0993 40.9102 31.8073ZM41.813 56.739C41.8633 56.8267 41.9129 56.914 41.9632 57.0013C41.915 57.1873 41.8668 57.3737 41.8187 57.5593C41.2533 57.6027 40.6879 57.6454 40.1214 57.6889C40.3033 57.1339 40.5744 56.8678 40.8662 56.4463C41.1816 56.5438 41.4969 56.6414 41.813 56.739ZM39.72 54.5823C38.949 54.5399 37.8902 53.9754 37.6656 53.3397C38.4848 53.5481 39.3022 53.7564 40.1214 53.9643C39.9879 54.1706 39.8544 54.3765 39.72 54.5823ZM40.5824 54.5493C40.4283 54.561 40.2755 54.5713 40.1214 54.5823C40.1263 54.5341 40.133 54.4846 40.1373 54.4351C40.308 54.2775 40.4768 54.118 40.6475 53.961C40.6254 54.1577 40.6039 54.3532 40.5824 54.5493ZM38.8935 31.8289C39.1429 31.7507 39.391 31.6721 39.6404 31.5939C39.8007 31.7942 39.9614 31.9951 40.1214 32.1958C39.9526 32.2023 39.7858 32.2085 39.617 32.2152C39.3765 32.0865 39.1344 31.9577 38.8935 31.8289ZM38.8839 58.5052C38.8452 58.6406 38.8069 58.7764 38.7682 58.9123C38.7082 58.9173 38.6489 58.9238 38.5896 58.9315C38.4866 58.7239 38.3829 58.5162 38.2796 58.3102C38.4848 58.331 38.6883 58.3518 38.8935 58.3732C38.8903 58.417 38.8864 58.4609 38.8839 58.5052ZM39.2255 55.825C39.7036 55.9212 40.1804 56.0183 40.6573 56.1145C40.6836 56.1787 40.7094 56.2436 40.7353 56.3082C40.3642 56.7686 39.9939 57.2281 39.6228 57.6889C39.1761 57.6231 38.7279 57.5572 38.2796 57.4914C38.5954 56.9361 38.9105 56.3803 39.2255 55.825ZM49.9443 36.3538C50.0367 36.2182 50.1291 36.0829 50.2215 35.9473C50.2555 35.9459 50.2879 35.9445 50.3219 35.9431C50.5793 36.0077 50.8354 36.0723 51.0923 36.1369C51.1186 36.1732 51.1458 36.21 51.1721 36.2465C50.8848 36.3522 50.5975 36.4585 50.3094 36.5644C50.1882 36.4941 50.0658 36.4238 49.9443 36.3538ZM51.6043 34.3457C51.4607 34.2568 51.3182 34.1686 51.1721 34.0791C51.6129 34.2407 51.3594 34.0599 51.6043 34.3457ZM51.4659 37.1857C51.367 37.1026 51.2697 37.0196 51.1721 36.9363C51.3768 36.8121 51.5811 36.688 51.7861 36.5644C51.679 36.771 51.572 36.9785 51.4659 37.1857ZM51.1721 41.5348C51.4901 41.6135 51.8087 41.6921 52.1266 41.771C52.3831 41.8709 52.3774 41.8983 52.4 42.1562C51.9897 41.9989 51.3037 41.8909 51.1721 41.5348ZM51.2653 39.8423C51.3089 39.7852 51.3538 39.7283 51.3974 39.6709C51.5275 39.8783 51.6569 40.0851 51.7861 40.2922C51.5816 40.2525 51.3765 40.213 51.1721 40.173C51.2033 40.063 51.2341 39.9528 51.2653 39.8423ZM38.8298 60.2844C38.8509 60.3391 38.8721 60.3935 38.8935 60.4479C38.6178 60.5531 38.3415 60.6586 38.0665 60.7639C37.9333 60.774 37.7995 60.7849 37.6656 60.7954C37.6682 60.7674 37.6705 60.7393 37.6743 60.7109C37.7681 60.5636 37.8613 60.4163 37.9564 60.2693C38.3479 60.0887 38.3569 60.2066 38.8298 60.2844ZM37.0517 29.1087C37.5882 29.5048 37.7256 29.9968 37.6438 31.5939C37.2901 31.1421 37.0771 30.1876 37.0517 29.1087ZM37.4053 27.8661C37.3894 28.017 37.374 28.1661 37.3587 28.3159C37.2562 28.324 37.1536 28.3308 37.0517 28.3382C37.1678 28.1811 37.2869 28.0245 37.4053 27.8661ZM37.0517 28.4874C37.036 28.6371 37.0226 28.7868 37.0051 28.9366C36.817 28.9012 36.6259 28.8664 36.4378 28.8316C36.5933 28.721 36.7494 28.6091 36.9049 28.4985C36.9539 28.4942 37.004 28.4911 37.0517 28.4874ZM37.0517 64.5233C37.152 63.4686 37.2542 62.4143 37.3552 61.3601C38.0724 61.1715 38.7903 60.9836 39.5074 60.7954C38.7532 62.001 37.9996 63.2058 37.245 64.4097C37.1807 64.4478 37.116 64.4864 37.0517 64.5233ZM37.2035 56.0216C37.3142 55.9557 37.4237 55.8901 37.5335 55.825C37.8348 56.1828 37.5647 56.6959 37.2822 57.0676C37.044 56.8453 37.0182 56.7079 37.0809 56.2047C37.1215 56.1436 37.1633 56.082 37.2035 56.0216ZM35.2099 55.7179C35.4462 55.3399 35.6821 54.9611 35.9172 54.5823C36.2958 54.8038 36.6744 55.0252 37.0517 55.2471C36.6631 55.854 36.2717 56.4601 35.8799 57.0676C35.527 56.7551 35.3112 56.2942 35.2099 55.7179ZM35.2099 60.5832C35.5859 60.2396 35.9645 59.8964 36.3409 59.5528C36.5197 59.5691 36.6989 59.585 36.8769 59.6006C36.935 59.6972 36.9923 59.7941 37.0517 59.8911C37.0054 60.1924 36.9612 60.4941 36.9162 60.7954C36.347 60.7245 35.7791 60.6541 35.2099 60.5832ZM33.3681 59.7399C33.8175 59.4706 34.2688 59.2012 34.7182 58.9315C35.0619 58.985 35.4037 59.0388 35.7466 59.0929C35.7716 59.1397 35.7985 59.1868 35.8239 59.2345C35.4629 59.5476 35.1027 59.8607 34.7425 60.1741C34.2012 60.1179 33.8421 59.9745 33.5603 59.7289C33.4954 59.7326 33.4312 59.7363 33.3681 59.7399ZM33.189 58.5392C33.3542 58.4626 33.5185 58.3864 33.6819 58.3102C33.7523 58.3254 33.8231 58.3405 33.8939 58.3557C33.9233 58.3899 33.9527 58.4242 33.9821 58.458C33.5065 58.6161 33.0278 58.774 32.5517 58.9315C32.415 58.8838 32.2783 58.8352 32.1403 58.7877C32.4907 58.7047 32.8407 58.6221 33.189 58.5392ZM31.5263 57.9557C31.6465 57.6648 31.7674 57.3735 31.8869 57.082C32.5599 56.9945 32.7177 57.3261 33.2211 57.5353C33.2689 57.6086 33.3187 57.6828 33.3681 57.7568C33.1177 57.9282 32.8668 58.0987 32.6164 58.2702C32.4129 58.2837 32.2098 58.297 32.006 58.3102C31.8465 58.1923 31.6873 58.0742 31.5263 57.9557ZM30.2985 60.5058C30.596 59.9813 30.894 59.456 31.1916 58.9315C31.785 58.9306 31.8564 58.9801 32.1012 59.2931C32.2085 59.4744 32.116 59.3773 31.8788 59.4177C31.8598 59.5985 31.8429 59.7785 31.8239 59.9602C32.135 60.0083 32.4448 60.0555 32.7542 60.1046C32.572 60.5579 32.5429 60.4981 32.2656 60.7869C31.3518 60.8364 30.938 60.6614 30.2985 60.5058ZM29.2643 58.3102C29.7845 58.4671 30.3042 58.6233 30.8253 58.7795C30.8539 58.8408 30.8825 58.9034 30.9124 58.9651C30.5778 59.3682 30.244 59.7714 29.9102 60.1741C29.4255 60.0152 28.9405 59.8562 28.4567 59.6981C28.7259 59.236 28.9955 58.7731 29.2643 58.3102ZM23.2504 56.631C23.2572 56.569 23.2633 56.5078 23.2705 56.4463C23.5606 56.6696 23.8515 56.893 24.1413 57.1164C24.1667 57.1749 24.1917 57.2342 24.2167 57.2935C22.4043 58.6888 25.1751 63.2407 28.3287 60.2921C28.7808 60.4734 29.2317 60.654 29.6845 60.8349C29.1627 61.7635 28.2672 62.1292 27.324 62.6524C25.0689 62.8402 21.9135 59.1657 23.2504 56.631ZM25.3536 57.2673C25.3651 57.4079 25.3758 57.5477 25.387 57.6889C25.2193 57.5626 25.0527 57.4377 24.8861 57.3117C24.8479 57.2304 24.8108 57.1488 24.7731 57.0676C24.9667 57.1343 25.16 57.201 25.3536 57.2673ZM28.4567 59.906C28.0828 60.1949 27.7082 60.4843 27.3336 60.7721C25.1262 61.004 24.2313 59.478 24.1592 57.6023C24.303 57.4291 24.4453 57.2559 24.5888 57.0818C24.6522 57.0774 24.7156 57.0721 24.7786 57.0676C25.891 57.9422 26.8736 59.2758 28.3827 59.7172C28.4066 59.7804 28.4316 59.8432 28.4567 59.906ZM26.3173 50.8545C26.1162 50.7078 26.1035 50.6377 26.001 50.392C26.1419 49.8614 26.2817 49.3297 26.422 48.7987C26.5857 48.6557 26.7495 48.5119 26.9129 48.3692C27.0183 48.5237 27.1245 48.6773 27.2288 48.8309C26.9252 49.5057 26.6212 50.1797 26.3173 50.8545ZM26.001 51.3922C26.3239 50.6302 26.6468 49.8683 26.9704 49.1068C27.0372 49.0673 27.1032 49.0292 27.1688 48.9906C27.6143 49.7756 28.2602 50.1314 28.4567 51.1975C27.9708 51.7043 27.4842 52.2112 26.9983 52.7184C26.546 52.3878 26.2307 51.9561 26.001 51.3922ZM27.8428 53.2917C28.2538 52.8932 28.6637 52.4952 29.0747 52.0971C29.2772 52.5109 29.4809 52.9251 29.6845 53.3397C29.071 53.3228 28.4574 53.3074 27.8428 53.2917ZM30.9124 40.7374C30.3303 41.9784 29.5569 42.8208 29.093 44.0201C28.8911 42.9297 30.1111 41.3625 30.5045 40.3996C30.5664 40.3637 30.6291 40.3285 30.6911 40.2922C30.7651 40.4405 30.8384 40.5888 30.9124 40.7374ZM30.9124 37.3203C31.8244 37.0379 32.4375 36.5209 33.0917 35.9431C33.1835 36.2197 33.2763 36.4967 33.3681 36.7734C33.1094 37.1175 32.8517 37.4629 32.5933 37.807C32.0326 37.6452 31.4728 37.4826 30.9124 37.3203ZM33.9821 37.383C33.8714 37.5241 33.7601 37.6659 33.6494 37.807C33.5561 37.7916 33.4621 37.7754 33.3681 37.7598L33.375 37.6924C33.5612 37.5233 33.7474 37.3548 33.9325 37.1857C33.9483 37.2516 33.9659 37.3173 33.9821 37.383ZM33.4982 34.7068C33.5305 34.7043 33.5628 34.7026 33.5951 34.7004C33.7238 34.9718 33.8533 35.2432 33.9821 35.5139C33.9331 35.6577 33.8833 35.8004 33.835 35.9431C33.2742 35.6496 33.2968 35.3018 33.4982 34.7068ZM33.3847 52.7184C33.5726 52.8532 33.7617 52.9881 33.9514 53.1235C33.7561 53.0378 33.5627 52.9526 33.3681 52.8688C33.3724 52.8178 33.378 52.7675 33.3847 52.7184ZM33.375 53.3397C33.5776 53.4272 33.7798 53.5146 33.9821 53.6027C33.9784 53.6272 33.9751 53.6523 33.9721 53.678C33.5394 53.9792 33.104 54.2811 32.6705 54.5823C32.2958 54.4159 32.2498 54.0814 32.1403 53.7146C32.1432 53.6892 32.1469 53.6642 32.1498 53.6391C32.5583 53.5388 32.9672 53.4394 33.375 53.3397ZM31.5569 52.0971C31.7518 52.1754 31.9454 52.253 32.1403 52.3313C32.036 52.3922 31.9329 52.4531 31.8283 52.5134C31.7272 52.5252 31.627 52.5357 31.5263 52.5469C31.5356 52.3978 31.5461 52.2475 31.5569 52.0971ZM31.5263 39.6709C32.2637 39.88 32.0304 39.741 32.0629 40.2922C31.7234 40.0952 31.7001 40.0005 31.5263 39.6709ZM31.5263 50.7695C31.5429 50.5905 31.5604 50.4127 31.5775 50.2332C31.8634 50.4316 31.9612 50.5499 32.1403 50.8545C31.9346 50.8256 31.7305 50.7972 31.5263 50.7695ZM32.7542 43.0103C32.5239 43.3069 32.5335 43.2245 32.1403 43.3988C32.2299 43.192 32.3196 42.9845 32.4098 42.7775C32.525 42.8553 32.6401 42.9325 32.7542 43.0103ZM32.7542 40.5121C32.6257 40.6458 32.4975 40.7795 32.369 40.9135C31.9825 40.6949 32.1657 40.7821 32.3388 40.3803C32.4153 40.3513 32.4919 40.3216 32.5692 40.2922C32.6318 40.3656 32.6934 40.4387 32.7542 40.5121ZM32.7051 39.4547C32.5172 39.3199 32.3281 39.1851 32.1403 39.0496C32.5755 39.2155 32.4749 39.1142 32.7051 39.4547ZM31.5263 50.8545C31.7312 51.0179 31.9352 51.1807 32.1403 51.3428C31.8259 51.3348 31.6591 51.2677 31.5263 50.8545ZM33.3681 50.831C33.2854 50.8388 33.2016 50.8467 33.1182 50.8545C33.0467 50.7223 32.9749 50.5906 32.9034 50.4584C32.8536 50.394 32.8034 50.3293 32.7542 50.2645C32.8649 50.2536 32.9756 50.2432 33.0866 50.2332C33.1803 50.4327 33.2737 50.6319 33.3681 50.831ZM33.0292 39.3267C32.9378 39.2335 32.8451 39.1416 32.7542 39.0496C33.0243 39.2379 32.8451 39.054 33.0292 39.3267ZM33.0678 49.5584C32.9638 49.3415 32.8585 49.1251 32.7542 48.9082C32.7982 48.73 32.8428 48.5527 32.8871 48.3746C32.9127 48.373 32.9385 48.3711 32.9647 48.3692C33.0986 48.7831 33.234 49.1973 33.3681 49.6119C33.269 49.594 33.169 49.5762 33.0678 49.5584ZM31.459 56.7875C31.4818 56.8153 31.5039 56.8428 31.5263 56.8706C31.453 57.1435 31.3797 57.4167 31.3064 57.6889C30.8545 57.5088 30.3921 57.0425 30.2985 56.4463C30.686 56.5599 31.0724 56.6731 31.459 56.7875ZM29.6845 57.6889C29.8897 57.8697 30.0933 58.0511 30.2985 58.2325C29.9058 58.0604 29.8817 58.0679 29.6845 57.6889ZM30.7442 52.1815C30.7681 52.3608 30.7945 52.5401 30.8185 52.7184C30.6447 52.5112 30.4722 52.3044 30.2985 52.0971C30.4464 52.1251 30.5944 52.1535 30.7442 52.1815ZM30.1374 55.0865C29.9861 54.7117 29.8347 54.3362 29.6845 53.961C30.2204 54.1674 30.6407 54.7813 30.9124 55.2036C30.6546 55.1644 30.396 55.1258 30.1374 55.0865ZM30.6197 44.0249C30.67 44.0229 30.7222 44.0215 30.7726 44.0201C30.6228 44.2271 30.4742 44.4341 30.3238 44.6414C30.2495 44.4882 30.3391 44.3409 30.589 44.1609C30.5982 44.1153 30.6092 44.0702 30.6197 44.0249ZM30.2985 49.3652C30.2579 49.4474 30.2164 49.5293 30.1754 49.6119C30.0576 49.5206 29.9408 49.4299 29.8226 49.3386C29.7766 49.2401 29.7303 49.1413 29.6845 49.0432C29.8452 49.0257 30.0051 49.0081 30.1658 48.9906C30.2104 49.1153 30.2545 49.2401 30.2985 49.3652ZM26.001 54.5823C27.2318 55.3819 29.3213 56.1227 29.6845 57.6889C28.2581 57.012 26.8677 55.7933 26.001 54.5823ZM29.1914 53.9823C29.3556 54.1824 29.5206 54.3822 29.6845 54.5823C29.2755 54.3751 28.8658 54.1682 28.4567 53.961C28.7018 53.9681 28.9472 53.9752 29.1914 53.9823ZM33.687 55.825C33.3763 55.5132 33.0653 55.2007 32.7542 54.8885C33.2976 54.3721 33.8424 53.8566 34.3857 53.3397C34.456 53.9077 34.5262 54.4758 34.596 55.0438C34.2931 55.3039 33.9903 55.5648 33.687 55.825ZM34.596 56.8632C34.6511 56.7281 34.7044 56.5933 34.7591 56.4582C34.8309 56.4539 34.9023 56.4499 34.9755 56.4463C35.0542 56.6533 35.1316 56.8602 35.2099 57.0676C35.0056 56.9993 34.8004 56.9315 34.596 56.8632ZM35.4236 54.5823C35.3524 54.3752 35.2818 54.1686 35.2099 53.961C35.3597 53.9888 35.5089 54.0157 35.655 54.0434C35.5789 54.2228 35.5009 54.403 35.4236 54.5823ZM34.596 33.6609C34.5979 33.6429 34.5996 33.6249 34.6022 33.6064C34.8052 33.5569 35.0069 33.5076 35.2099 33.4578C35.0683 33.6649 34.9265 33.872 34.7854 34.0791C34.7224 33.9398 34.6591 33.8002 34.596 33.6609ZM28.4063 46.5053C28.2179 46.0906 28.03 45.6766 27.8428 45.2627C28.5641 45.4207 28.4487 45.9334 28.4063 46.5053ZM26.902 47.1266C26.3778 46.7623 26.0421 46.0399 26.001 45.2627C27.0778 45.5174 27.0196 45.9407 27.2288 46.9217C27.1198 46.9899 27.0111 47.0584 26.902 47.1266ZM26.2675 43.8847C25.4849 43.1462 26.6257 40.1876 27.1274 39.5076C27.3912 39.173 27.7255 39.179 28.1662 39.0496C28.2634 39.0745 28.3591 39.1001 28.4567 39.1249C27.7191 40.4292 27.2202 42.2038 27.0441 44.0201C26.7851 43.9744 26.5269 43.9295 26.2675 43.8847ZM25.1219 53.961C25.2471 54.1708 25.3723 54.3806 25.4975 54.5911C25.3863 54.8518 25.2738 55.112 25.1615 55.3727C25.0967 55.4409 25.0328 55.5087 24.9687 55.5769C25.2425 55.6156 25.3039 55.3794 25.7167 55.045C26.511 56.3348 27.7285 57.5655 29.0706 58.2669C28.8265 58.6952 28.5811 59.1238 28.3373 59.5528C27.5974 59.0773 26.8599 58.6021 26.1203 58.1266C25.8661 57.6573 26.2167 57.1187 25.8086 56.8312C25.44 56.571 24.9631 56.9476 24.5875 56.8344C24.2403 56.5162 23.8924 56.198 23.5452 55.8802C23.8507 55.1976 24.1456 54.5281 24.7523 54.1791C24.8761 54.1061 24.9985 54.0332 25.1219 53.961ZM22.9989 47.1102C23.0766 46.4991 23.2092 45.8676 23.3593 45.27C23.3874 45.2677 23.4149 45.2654 23.443 45.2627C23.5495 45.8788 23.6561 46.4945 23.7632 47.1102C23.8192 47.4321 23.8741 47.754 23.93 48.0755C24.4154 49.4158 24.901 50.7568 25.387 52.0971C24.2218 51.4602 23.4993 49.9892 23.6028 48.0105C23.3228 48.6493 23.5559 49.6535 23.648 50.2153C22.9302 49.6096 22.8381 48.4043 22.9989 47.1102ZM21.9347 47.7479C21.8283 47.5293 21.759 47.2867 21.7265 46.9995C21.6919 46.7043 21.6968 46.3628 21.7377 45.9546C21.7723 45.8798 21.8077 45.8059 21.843 45.732C22.0015 45.5757 22.1596 45.4194 22.3174 45.2627C22.2282 45.8415 22.139 46.4207 22.0494 46.9995C22.0116 47.2493 21.9728 47.4982 21.9347 47.7479ZM64.6786 53.961C64.2698 53.8039 63.8607 53.6462 63.4508 53.4885C63.8482 53.4393 64.2451 53.389 64.6426 53.3397C64.6539 53.5466 64.6664 53.7541 64.6786 53.961ZM32.1888 64.0735C32.2956 64.0157 32.4043 63.9585 32.5111 63.902C32.3889 64.1076 32.2631 64.3164 32.1403 64.522C32.1562 64.3729 32.1728 64.2226 32.1888 64.0735ZM22.9313 42.7775C22.7575 42.7603 22.5829 42.7436 22.4076 42.7264C21.758 42.5147 21.1449 41.7568 21.0895 40.9135C22.0865 41.003 22.4236 41.4742 22.9164 42.0496C22.9214 42.2919 22.927 42.5345 22.9313 42.7775ZM22.8589 42.7257C22.9303 41.3852 21.9046 40.5482 20.5733 40.5841C20.8016 38.6994 22.4417 37.737 23.9043 37.104C23.9985 37.097 24.0912 37.0901 24.1854 37.0831C23.9402 39.4475 24.1263 41.484 23.2409 43.5294C22.5871 45.0368 20.2698 45.0086 20.3965 47.3317C20.3995 47.3947 20.4043 47.4603 20.4118 47.5272C20.7422 50.6184 24.1102 51.2472 24.5763 53.9658C19.5843 56.4993 25.6692 67.1523 29.6181 60.8949C30.3245 60.9964 30.9554 61.317 31.8349 61.008C32.2434 60.7825 32.3245 60.5994 32.4834 60.129C32.9532 60.3715 33.4242 60.6141 33.894 60.8566C33.9187 60.9157 33.9433 60.976 33.9688 61.0358C32.6748 62.0369 31.7631 63.4107 30.375 64.3511C30.4183 64.224 30.4628 64.0962 30.5073 63.9707C30.3854 63.9494 30.2643 63.927 30.1425 63.9054C30.0775 63.9413 30.0109 63.9772 29.9455 64.0128C29.885 64.2936 29.8259 64.5763 29.7646 64.857C30.557 65.6646 32.9614 62.741 33.6656 62.1667C33.2668 63.557 32.2838 64.2715 31.7377 65.5433C31.793 65.6013 31.8499 65.6592 31.9059 65.7164C32.9428 64.9745 34.2143 62.8765 34.4076 61.2799C34.9245 61.3653 35.4421 61.4502 35.9602 61.536C34.0136 64.1638 29.0137 69.9416 26.3857 71.4833C26.7838 70.2293 27.423 69.2719 27.7436 68.2418C27.6805 68.2461 27.6181 68.25 27.5568 68.255C27.5007 68.197 27.4443 68.1395 27.3878 68.0823C26.749 69.3399 25.6939 70.2216 25.5059 71.9175C25.6393 72.1245 25.7817 72.2361 25.9253 72.3485C29.0515 71.8279 34.2696 63.9861 36.7642 61.8453C36.0895 68.6087 32.458 69.6647 29.3086 73.7628C32.1702 72.3377 33.9067 68.7018 36.3564 66.6815C36.0854 69.5094 35.4119 75.8279 33.7157 76.9495C33.8092 76.9417 33.9026 76.9359 33.9968 76.929C35.8967 75.7491 36.0084 70.8975 36.6416 68.4168C36.7313 67.5466 36.8217 66.678 36.9114 65.8098C37.8163 64.5403 38.7216 63.2716 39.6265 62.0045C39.6926 61.9689 39.7577 61.9326 39.8235 61.8979C40.127 62.8491 41.5017 63.8811 42.9911 63.6042C43.3477 63.4547 43.7035 63.3056 44.0583 63.1565C44.9538 63.4906 45.8475 63.8243 46.7408 64.1588C47.0929 68.0097 46.9576 70.1691 44.5154 73.1024C47.0107 71.829 47.9279 66.9218 47.097 64.3179C52.9001 64.9887 52.668 63.0333 51.5661 58.8135C51.9066 58.8182 52.2468 58.8244 52.5873 58.8305C52.4 58.5482 51.8906 58.7579 51.5019 58.5413C51.3254 58.4277 51.3602 58.4489 51.2499 58.2821C52.6306 56.728 55.9523 58.2717 55.2567 60.8508C56.2102 58.7112 54.0999 56.8106 52.0662 57.5749C52.9349 56.5476 53.9867 55.7033 54.5365 54.3431C54.603 54.3072 54.6677 54.2713 54.7342 54.2361C56.3253 55.9049 57.9187 57.5749 59.5106 59.2434C59.6033 59.2368 59.6978 59.2295 59.7917 59.2229C59.8642 59.1252 59.9356 59.0275 60.0069 58.9294C58.4909 57.1323 56.9723 55.333 55.4559 53.5359C55.6182 53.4617 55.7804 53.3884 55.9445 53.3146C56.2072 53.0655 56.4961 52.9828 56.7858 53.0218C56.701 52.9797 56.6199 52.9392 56.5436 52.901C58.9843 53.1458 62.0982 55.175 64.6435 54.5211C64.8786 54.1141 64.8887 53.8928 64.7478 53.4969C67.4588 53.5653 72.3357 52.6596 73.8876 51.3441C69.7182 52.2193 65.0181 52.5159 61.1873 52.0038C60.0552 51.8721 58.9245 51.7396 57.7931 51.6075C57.7303 51.6122 57.6675 51.6164 57.604 51.6214C57.9082 51.0757 58.2125 50.5288 58.5167 49.9827C61.3159 49.9313 68.6515 49.8607 70.1353 48.1092C70.0262 47.9636 69.917 47.8168 69.8086 47.6712C69.3818 47.6102 68.9542 47.5496 68.5281 47.4881C68.4179 47.6507 68.4025 47.806 68.385 47.9616C68.7232 47.9979 69.0592 48.0343 69.396 48.0713C67.1971 48.6244 61.0726 49.7911 59.0722 49.1099C58.8617 48.8557 59.0172 47.9705 59.0266 47.3325C59.0295 47.2062 59.0258 47.0892 59.0131 46.9892C61.887 46.1314 64.0212 44.2022 64.8962 41.2874C65.3967 39.6209 65.0648 37.4292 66.1461 36.3898C66.8368 36.4501 66.9759 36.7405 67.4831 36.9383C67.2143 36.566 66.832 36.3597 66.3528 36.1898C66.0515 36.3968 65.7521 36.6038 65.4528 36.8104C64.6297 37.1283 63.7682 36.2968 62.3733 36.9452C61.2404 35.9778 60.6001 34.4476 59.0699 33.8624C59.0172 33.7736 58.9638 33.6852 58.9118 33.5967C59.5319 32.9958 60.1501 32.396 60.7702 31.7958C60.1606 32.3033 59.5416 32.9035 58.9215 33.5033C58.5081 33.3183 58.0925 33.1329 57.6772 32.9487C57.6541 32.888 57.629 32.8289 57.604 32.7691C59.0209 31.7668 60.2794 31.3949 61.8934 31.7135C61.9696 31.8615 62.0488 32.0098 62.1262 32.1581C62.0507 32.2875 61.9842 32.3222 61.9195 32.3581C61.739 32.3099 61.5566 32.262 61.3764 32.2129C61.6104 32.3504 61.8541 32.3941 62.0971 32.4377C62.1651 32.3705 62.2342 32.3041 62.3019 32.2376C62.3123 32.1442 62.3224 32.0515 62.3329 31.958C61.9804 31.6444 61.8728 31.4189 61.1817 31.3961C61.2916 31.2335 61.4019 31.0717 61.5121 30.9098C60.7197 31.4525 59.1148 31.5973 58.3265 32.0689C58.9327 31.5927 59.5394 31.1165 60.146 30.6406C60.2178 30.5433 60.2899 30.4452 60.3624 30.3479C59.2403 31.0153 58.119 31.6838 56.9974 32.352C56.279 32.3017 55.515 31.9669 55.1278 31.5652C55.0657 31.5699 55.0041 31.5745 54.9401 31.5791C56.273 30.68 57.604 29.7809 58.935 28.8822C58.9133 28.791 58.8924 28.7003 58.8711 28.6091C57.3547 29.4913 55.8394 30.373 54.3249 31.2555C53.8409 31.1365 53.358 31.0184 52.8751 30.8994C52.9192 30.4653 52.9648 30.0308 53.0093 29.5963C56.4797 26.8758 59.9509 24.1553 63.4206 21.4352C63.4822 21.4302 63.545 21.4259 63.6078 21.4217C63.5574 21.3019 63.508 21.1822 63.4591 21.0625C63.0726 20.8783 61.4886 22.1617 60.8902 22.5459C58.5855 24.0224 56.547 25.8593 54.2793 27.1925C55.2152 26.0057 56.9297 24.8238 57.2119 23.0944C57.0594 23.0751 56.9054 23.0554 56.7529 23.036C56.5163 23.238 56.279 23.4408 56.0401 23.6432C56.2999 23.5316 56.5589 23.4203 56.8176 23.3083C56.3152 24.8292 54.0416 27.5509 52.7611 28.4133C52.711 28.2932 52.6617 28.1746 52.6123 28.0545C53.4462 26.6518 54.2681 24.769 53.8816 22.9704C53.648 22.8337 53.414 22.6969 53.1804 22.5598C52.9311 22.5788 52.6818 22.5973 52.4318 22.6155C52.9117 22.8051 53.2373 22.8518 53.5897 23.0843C53.8158 24.8281 52.9551 26.0068 52.4927 27.4165C52.4258 27.452 52.3611 27.4876 52.2954 27.5239C51.9859 26.9546 52.0057 26.6788 51.3718 26.5749C51.3527 26.4533 51.3348 26.3312 51.3168 26.2092C51.4604 26.0134 51.605 25.8187 51.7493 25.6233C51.8491 25.5538 51.9485 25.4847 52.049 25.4159C52.1503 25.6055 52.1548 25.5387 52.1877 25.8678C52.2972 25.706 52.3129 25.5507 52.3283 25.3951C52.2116 25.3425 52.0924 25.2896 51.9747 25.2371C51.6614 25.5677 51.349 25.8991 51.0365 26.2301C50.2512 25.706 49.3897 25.1568 48.2886 24.9544C48.9113 23.6594 50.81 21.5808 49.8289 19.9425C48.6339 17.95 44.5513 20.2472 43.0566 21.8276C42.8562 22.0408 42.7007 22.2408 42.6069 22.4162C42.7022 22.3389 42.8566 22.2177 43.0566 22.0693C44.5314 20.9702 48.4612 18.3424 49.3123 20.443C50.2052 21.6159 48.4949 23.8718 48.0277 24.7887C46.4362 24.6276 44.771 24.4755 43.0588 24.5095C41.3301 24.5446 39.5514 24.7682 37.7513 25.3618C36.8812 25.6488 33.1786 27.863 33.0373 27.8352C32.4748 27.2921 31.9112 26.7476 31.3479 26.2038C30.1713 25.6133 28.9931 25.0224 27.8162 24.4318C27.8091 24.4936 27.8034 24.5554 27.7975 24.618C27.7283 24.6848 27.6588 24.7512 27.5908 24.818C29.0989 26.0926 30.609 27.3678 32.1164 28.6427C31.8861 28.7833 31.6555 28.9231 31.4245 29.0637C29.5631 27.6548 28.28 26.7993 25.5089 26.0806C25.3534 26.0922 25.1972 26.1034 25.0417 26.115C26.6601 27.2276 28.289 28.2473 29.9171 29.2669C30.0259 29.4129 30.1343 29.5588 30.2434 29.7052C29.081 30.1953 28.5895 31.2095 27.6068 31.8402C26.0725 31.108 24.653 30.4468 22.7938 29.8844C22.7505 30.0111 22.7056 30.1378 22.6623 30.2645C23.8236 31.0102 24.9845 31.7564 26.1458 32.5026C26.2082 32.4979 26.2706 32.4933 26.3327 32.4891C26.1327 32.6266 25.9327 32.7648 25.7335 32.9027C25.4551 33.8354 24.9112 34.9157 24.4593 36.2311C22.7236 37.642 20.4731 37.5574 20.124 40.4324C19.5705 40.5841 19.1769 40.632 18.6723 41.0013C18.6592 41.1256 18.6469 41.25 18.6338 41.374C18.9504 41.8189 21.7708 43.0092 22.4455 43.1258C22.5841 42.9922 22.7217 42.8586 22.8589 42.7257ZM43.4564 22.8485C43.5429 22.8644 43.627 22.8797 43.7129 22.8956C43.598 22.8817 43.4829 22.8672 43.3677 22.8531C43.3087 22.8561 43.25 22.8589 43.191 22.8619C43.4624 22.355 44.2626 22.2302 45.0328 22.2868C45.0152 22.4081 44.9978 22.5296 44.9788 22.6506C44.4778 22.6762 43.9754 22.7016 43.4744 22.7268C43.4691 22.7675 43.4624 22.8078 43.4564 22.8485ZM44.5317 23.5169C44.7733 23.4373 45.0152 23.3582 45.256 23.279C45.5684 22.7598 45.7469 22.2097 45.5871 21.705C44.8434 21.558 44.4132 21.74 43.7154 22.0319C43.5891 22.2383 43.4626 22.4457 43.3377 22.6524C43.2891 22.732 43.2393 22.8115 43.191 22.8915C43.2393 22.9455 43.2862 22.9927 43.3377 23.0354C43.5729 23.2303 43.8582 23.2976 44.3822 23.2546C44.5247 23.499 44.36 23.3905 44.1001 23.4594C44.2436 23.4781 44.3875 23.4979 44.5317 23.5169ZM62.387 29.1087C62.1274 29.1574 61.8678 29.2062 61.609 29.2542C61.7689 29.2435 61.9292 29.2325 62.0879 29.2207C62.2708 29.2988 62.4534 29.3776 62.6347 29.4553C62.3583 29.9616 62.0818 30.4671 61.8053 30.9726C62.2313 30.4701 62.6566 30.1128 62.8368 29.3498C62.6861 29.269 62.5366 29.189 62.387 29.1087ZM57.9254 53.3397C57.7311 52.9978 57.5205 52.7714 57.3114 52.7184C57.4982 52.8939 57.7132 53.0993 57.9254 53.3397ZM55.4697 60.7954C55.2653 60.9147 55.06 61.0334 54.8557 61.1508C55.0129 61.1359 55.17 61.121 55.3276 61.1067C55.3757 61.0023 55.4234 60.8992 55.4697 60.7954ZM57.9254 53.3397C58.549 54.0442 59.018 55.3917 58.8825 56.4463C59.5903 54.9171 58.7824 53.9636 57.9254 53.3397Z" fill="white"/>
<path d="M140.1 45L128.036 26.748L139.996 8.392H131.208L123.2 20.872L115.296 8.392H106.196L118.156 26.592L106.092 45H114.984L122.992 32.468L131.052 45H140.1ZM155.462 17.492C148.442 17.492 144.438 21.34 143.71 25.968H150.782C151.198 24.564 152.55 23.368 155.15 23.368C157.698 23.368 159.57 24.668 159.57 27.164V28.412H153.694C146.83 28.412 142.67 31.584 142.67 37.096C142.67 42.504 146.83 45.624 152.03 45.624C155.514 45.624 158.322 44.272 159.986 42.088V45H167.006V27.424C167.006 20.872 162.378 17.492 155.462 17.492ZM154.11 39.748C151.77 39.748 150.262 38.604 150.262 36.732C150.262 34.808 151.926 33.664 154.266 33.664H159.57V34.86C159.57 37.98 157.022 39.748 154.11 39.748ZM188.044 18.584C184.3 18.584 181.232 19.936 179.256 22.692C179.776 17.648 181.804 15.152 186.9 14.372L197.144 12.864V6.26L186.172 8.08C175.564 9.848 172.288 16.92 172.288 28.724C172.288 39.332 177.436 45.624 186.536 45.624C194.7 45.624 199.744 39.384 199.744 31.896C199.744 23.836 195.064 18.584 188.044 18.584ZM186.172 39.28C182.22 39.28 180.036 36.108 180.036 31.844C180.036 27.736 182.324 24.772 186.224 24.772C190.02 24.772 192.152 27.84 192.152 31.896C192.152 35.952 190.072 39.28 186.172 39.28ZM219.994 17.492C216.042 17.492 213.494 19.208 212.142 21.236V18.116H204.862V54.932H212.454V42.4C213.806 44.272 216.354 45.624 219.786 45.624C226.39 45.624 231.642 40.424 231.642 31.584C231.642 22.588 226.39 17.492 219.994 17.492ZM218.174 39.072C214.638 39.072 212.298 36.212 212.298 31.688V31.48C212.298 26.956 214.638 24.044 218.174 24.044C221.71 24.044 223.998 27.008 223.998 31.584C223.998 36.16 221.71 39.072 218.174 39.072ZM276.674 45L258.994 25.916L276.362 8.392H270.382L254.106 24.72V8.392H249.478V45H254.106V27.528L270.538 45H276.674ZM290.673 18.22C284.693 18.22 281.053 21.6 280.221 25.656H284.537C285.265 23.732 287.137 22.172 290.569 22.172C293.949 22.172 296.497 23.992 296.497 27.632V29.4H289.529C283.133 29.4 279.233 32.468 279.233 37.512C279.233 42.504 283.185 45.572 288.281 45.572C291.609 45.572 294.729 44.324 296.705 41.88V45H300.917V27.632C300.917 21.756 296.809 18.22 290.673 18.22ZM288.853 41.672C285.941 41.672 283.757 40.216 283.757 37.46C283.757 34.652 286.201 33.196 289.789 33.196H296.497V35.12C296.497 39.124 293.013 41.672 288.853 41.672ZM321.366 18.22C316.842 18.22 314.086 20.3 312.786 22.536V18.792H308.47V54.932H312.942V41.776C314.19 43.7 316.998 45.572 321.21 45.572C327.242 45.572 333.17 41.152 333.17 31.896C333.17 22.692 327.294 18.22 321.366 18.22ZM320.794 41.516C315.958 41.516 312.786 37.824 312.786 32V31.792C312.786 25.968 315.958 22.276 320.794 22.276C325.474 22.276 328.594 26.176 328.594 31.896C328.594 37.616 325.474 41.516 320.794 41.516ZM349.744 27.268H343.868V18.792H339.396V45H349.692C355.308 45 358.948 41.152 358.948 36.056C358.948 30.96 355.308 27.268 349.744 27.268ZM349.172 41.048H343.868V31.22H349.172C352.604 31.22 354.476 33.248 354.476 36.056C354.476 38.864 352.604 41.048 349.172 41.048ZM387.143 33.248V30.96C387.143 23.16 382.671 18.22 375.703 18.22C368.527 18.22 363.379 23.42 363.379 31.896C363.379 40.32 368.475 45.572 376.067 45.572C382.879 45.572 386.155 41.308 386.831 38.24H382.307C381.839 39.592 379.759 41.568 376.119 41.568C371.283 41.568 368.059 38.032 368.059 33.352V33.248H387.143ZM375.599 22.224C379.811 22.224 382.411 24.928 382.619 29.452H368.111C368.475 25.136 371.231 22.224 375.599 22.224ZM406.273 18.22C401.749 18.22 398.993 20.3 397.693 22.536V18.792H393.377V54.932H397.849V41.776C399.097 43.7 401.905 45.572 406.117 45.572C412.149 45.572 418.077 41.152 418.077 31.896C418.077 22.692 412.201 18.22 406.273 18.22ZM405.701 41.516C400.865 41.516 397.693 37.824 397.693 32V31.792C397.693 25.968 400.865 22.276 405.701 22.276C410.381 22.276 413.501 26.176 413.501 31.896C413.501 37.616 410.381 41.516 405.701 41.516ZM434.13 18.22C428.15 18.22 424.51 21.6 423.678 25.656H427.994C428.722 23.732 430.594 22.172 434.026 22.172C437.406 22.172 439.954 23.992 439.954 27.632V29.4H432.986C426.59 29.4 422.69 32.468 422.69 37.512C422.69 42.504 426.642 45.572 431.738 45.572C435.066 45.572 438.186 44.324 440.162 41.88V45H444.374V27.632C444.374 21.756 440.266 18.22 434.13 18.22ZM432.31 41.672C429.398 41.672 427.214 40.216 427.214 37.46C427.214 34.652 429.658 33.196 433.246 33.196H439.954V35.12C439.954 39.124 436.47 41.672 432.31 41.672Z" fill="#111111"/>
<path d="M107.376 68.992V88H109.779V71.206H119.85V88H122.253V68.992H107.376ZM132.366 74.095C128.397 74.095 125.832 77.065 125.832 81.196C125.832 85.327 128.397 88.297 132.366 88.297C136.335 88.297 138.9 85.327 138.9 81.196C138.9 77.065 136.335 74.095 132.366 74.095ZM132.366 86.191C129.801 86.191 128.208 84.166 128.208 81.196C128.208 78.226 129.801 76.201 132.366 76.201C134.931 76.201 136.524 78.226 136.524 81.196C136.524 84.166 134.931 86.191 132.366 86.191ZM154.863 74.392L149.922 85.246L144.981 74.392H142.146V88H144.414V78.118L148.95 88H150.894L155.403 78.118V88H157.671V74.392H154.863ZM167.435 74.095C163.466 74.095 160.901 77.065 160.901 81.196C160.901 85.327 163.466 88.297 167.435 88.297C171.404 88.297 173.969 85.327 173.969 81.196C173.969 77.065 171.404 74.095 167.435 74.095ZM167.435 86.191C164.87 86.191 163.277 84.166 163.277 81.196C163.277 78.226 164.87 76.201 167.435 76.201C170 76.201 171.593 78.226 171.593 81.196C171.593 84.166 170 86.191 167.435 86.191ZM186.232 74.392H177.214V88H179.536V76.471H186.232V74.392ZM194.051 74.095C190.946 74.095 189.056 75.85 188.624 77.956H190.865C191.243 76.957 192.215 76.147 193.997 76.147C195.752 76.147 197.075 77.092 197.075 78.982V79.9H193.457C190.136 79.9 188.111 81.493 188.111 84.112C188.111 86.704 190.163 88.297 192.809 88.297C194.537 88.297 196.157 87.649 197.183 86.38V88H199.37V78.982C199.37 75.931 197.237 74.095 194.051 74.095ZM193.106 86.272C191.594 86.272 190.46 85.516 190.46 84.085C190.46 82.627 191.729 81.871 193.592 81.871H197.075V82.87C197.075 84.949 195.266 86.272 193.106 86.272ZM214.821 81.898V80.71C214.821 76.66 212.499 74.095 208.881 74.095C205.155 74.095 202.482 76.795 202.482 81.196C202.482 85.57 205.128 88.297 209.07 88.297C212.607 88.297 214.308 86.083 214.659 84.49H212.31C212.067 85.192 210.987 86.218 209.097 86.218C206.586 86.218 204.912 84.382 204.912 81.952V81.898H214.821ZM208.827 76.174C211.014 76.174 212.364 77.578 212.472 79.927H204.939C205.128 77.686 206.559 76.174 208.827 76.174ZM230.774 74.392L225.833 85.246L220.892 74.392H218.057V88H220.325V78.118L224.861 88H226.805L231.314 78.118V88H233.582V74.392H230.774ZM249.197 86.191C246.74 86.191 245.12 84.166 245.12 81.196C245.12 78.253 246.686 76.201 249.17 76.201C251.33 76.201 252.329 77.605 252.68 78.739H255.002C254.651 76.579 252.788 74.095 249.17 74.095C245.255 74.095 242.744 77.119 242.744 81.196C242.744 85.354 245.309 88.297 249.17 88.297C252.545 88.297 254.705 86.029 255.002 83.599H252.68C252.383 84.76 251.465 86.191 249.197 86.191ZM268.054 74.392H256.579V76.471H261.142V88H263.464V76.471H268.054V74.392ZM277.646 74.095C275.297 74.095 273.866 75.175 273.191 76.336V74.392H270.95V93.157H273.272V86.326C273.92 87.325 275.378 88.297 277.565 88.297C280.697 88.297 283.775 86.002 283.775 81.196C283.775 76.417 280.724 74.095 277.646 74.095ZM277.349 86.191C274.838 86.191 273.191 84.274 273.191 81.25V81.142C273.191 78.118 274.838 76.201 277.349 76.201C279.779 76.201 281.399 78.226 281.399 81.196C281.399 84.166 279.779 86.191 277.349 86.191ZM292.731 74.095C288.762 74.095 286.197 77.065 286.197 81.196C286.197 85.327 288.762 88.297 292.731 88.297C296.7 88.297 299.265 85.327 299.265 81.196C299.265 77.065 296.7 74.095 292.731 74.095ZM292.731 86.191C290.166 86.191 288.573 84.166 288.573 81.196C288.573 78.226 290.166 76.201 292.731 76.201C295.296 76.201 296.889 78.226 296.889 81.196C296.889 84.166 295.296 86.191 292.731 86.191ZM311.745 74.392L304.806 84.409V74.392H302.511V88H304.806L311.745 77.983V88H314.04V74.392H311.745ZM328.408 74.392H316.933V76.471H321.496V88H323.818V76.471H328.408V74.392ZM336.677 78.793H333.626V74.392H331.304V88H336.65C339.566 88 341.456 86.002 341.456 83.356C341.456 80.71 339.566 78.793 336.677 78.793ZM336.38 85.948H333.626V80.845H336.38C338.162 80.845 339.134 81.898 339.134 83.356C339.134 84.814 338.162 85.948 336.38 85.948ZM361.732 88L355.252 80.737L361.651 74.392H358.708L352.822 80.224V74.392H350.5V88H352.822V81.412L358.735 88H361.732ZM368.997 74.095C365.892 74.095 364.002 75.85 363.57 77.956H365.811C366.189 76.957 367.161 76.147 368.943 76.147C370.698 76.147 372.021 77.092 372.021 78.982V79.9H368.403C365.082 79.9 363.057 81.493 363.057 84.112C363.057 86.704 365.109 88.297 367.755 88.297C369.483 88.297 371.103 87.649 372.129 86.38V88H374.316V78.982C374.316 75.931 372.183 74.095 368.997 74.095ZM368.052 86.272C366.54 86.272 365.406 85.516 365.406 84.085C365.406 82.627 366.675 81.871 368.538 81.871H372.021V82.87C372.021 84.949 370.212 86.272 368.052 86.272ZM384.934 74.095C382.585 74.095 381.154 75.175 380.479 76.336V74.392H378.238V93.157H380.56V86.326C381.208 87.325 382.666 88.297 384.853 88.297C387.985 88.297 391.063 86.002 391.063 81.196C391.063 76.417 388.012 74.095 384.934 74.095ZM384.637 86.191C382.126 86.191 380.479 84.274 380.479 81.25V81.142C380.479 78.118 382.126 76.201 384.637 76.201C387.067 76.201 388.687 78.226 388.687 81.196C388.687 84.166 387.067 86.191 384.637 86.191ZM399.669 78.793H396.618V74.392H394.296V88H399.642C402.558 88 404.448 86.002 404.448 83.356C404.448 80.71 402.558 78.793 399.669 78.793ZM399.372 85.948H396.618V80.845H399.372C401.154 80.845 402.126 81.898 402.126 83.356C402.126 84.814 401.154 85.948 399.372 85.948ZM419.087 81.898V80.71C419.087 76.66 416.765 74.095 413.147 74.095C409.421 74.095 406.748 76.795 406.748 81.196C406.748 85.57 409.394 88.297 413.336 88.297C416.873 88.297 418.574 86.083 418.925 84.49H416.576C416.333 85.192 415.253 86.218 413.363 86.218C410.852 86.218 409.178 84.382 409.178 81.952V81.898H419.087ZM413.093 76.174C415.28 76.174 416.63 77.578 416.738 79.927H409.205C409.394 77.686 410.825 76.174 413.093 76.174ZM429.02 74.095C426.671 74.095 425.24 75.175 424.565 76.336V74.392H422.324V93.157H424.646V86.326C425.294 87.325 426.752 88.297 428.939 88.297C432.071 88.297 435.149 86.002 435.149 81.196C435.149 76.417 432.098 74.095 429.02 74.095ZM428.723 86.191C426.212 86.191 424.565 84.274 424.565 81.25V81.142C424.565 78.118 426.212 76.201 428.723 76.201C431.153 76.201 432.773 78.226 432.773 81.196C432.773 84.166 431.153 86.191 428.723 86.191ZM447.19 74.392L443.113 85.003L439.009 74.392H436.498L441.871 87.838L439.738 93.157H442.249L449.701 74.392H447.19ZM466.313 80.818C467.204 80.467 468.095 79.495 468.095 77.902C468.095 75.958 466.718 74.392 463.829 74.392H458.051V88H464.153C467.069 88 468.689 86.326 468.689 84.139C468.689 82.249 467.528 81.142 466.313 80.818ZM465.8 78.172C465.8 79.306 465.044 80.035 463.613 80.035H460.346V76.39H463.613C465.044 76.39 465.8 77.011 465.8 78.172ZM463.883 86.002H460.346V82.006H463.883C465.557 82.006 466.367 82.708 466.367 83.95C466.367 85.219 465.557 86.002 463.883 86.002ZM480.607 68.992H478.204V88H480.607V68.992ZM498.85 68.992H483.919V71.206H490.183V88H492.586V71.206H498.85V68.992Z" fill="#6D6D6D"/>
</svg>
